<?xml version="1.0" standalone="no"?>
<!DOCTYPE svg PUBLIC "-//W3C//DTD SVG 20010904//EN"
 "http://www.w3.org/TR/2001/REC-SVG-20010904/DTD/svg10.dtd">
<svg version="1.0" xmlns="http://www.w3.org/2000/svg"
 width="1000.000000pt" height="1000.000000pt" viewBox="0 0 1000.000000 1000.000000"
 preserveAspectRatio="xMidYMid meet">
<metadata>
Created by potrace 1.14, written by Peter Selinger 2001-2017
</metadata>
<g transform="translate(0.000000,1000.000000) scale(0.100000,-0.100000)"
fill="#000000" stroke="none">
<path d="M4604 7470 c-143 -10 -172 -17 -188 -43 -15 -24 -23 -386 -18 -859 2
-246 3 -259 23 -279 21 -21 24 -21 422 -14 316 5 454 3 647 -9 637 -41 845
-68 1406 -186 309 -64 446 -100 602 -156 104 -38 284 -115 397 -171 102 -51
329 -193 410 -258 260 -207 336 -502 196 -770 -43 -84 -123 -167 -253 -263
-298 -221 -488 -310 -948 -442 -578 -167 -1062 -250 -1695 -291 -394 -25
-1273 -7 -1513 32 -76 12 -129 40 -145 78 -7 18 -12 530 -16 1772 -6 1700 -7
1747 -25 1768 -25 27 -79 27 -286 1 -447 -57 -901 -177 -1453 -384 -395 -148
-556 -226 -782 -377 -39 -25 -120 -77 -180 -114 -151 -93 -221 -151 -433 -359
-162 -160 -192 -194 -263 -305 -102 -159 -201 -360 -233 -473 -89 -311 -71
-578 59 -882 114 -266 270 -489 476 -679 166 -152 450 -363 543 -402 34 -14
40 -15 61 -1 l23 15 4 833 c4 821 4 834 26 898 40 121 130 245 246 338 198
159 663 398 882 452 47 12 55 11 85 -6 18 -11 36 -31 40 -46 4 -14 10 -703 14
-1530 7 -1275 10 -1506 22 -1525 32 -48 70 -58 643 -167 476 -90 809 -123
1402 -137 387 -10 480 -9 705 6 428 27 786 71 1098 135 77 16 208 40 290 54
274 46 786 209 1100 349 55 25 143 63 195 86 240 105 398 196 632 363 244 174
390 302 520 457 261 312 416 665 435 986 14 254 -96 574 -306 887 -104 156
-184 244 -364 406 -170 152 -199 172 -467 339 -256 160 -374 221 -615 321
-409 170 -803 294 -1230 387 -223 48 -367 71 -597 95 -54 5 -142 15 -195 20
-381 40 -547 50 -908 54 -209 3 -430 1 -491 -4z"/>
<path d="M5070 5734 c-90 -18 -195 -52 -252 -81 -75 -39 -196 -138 -250 -205
-89 -109 -138 -260 -138 -425 0 -207 56 -352 190 -495 98 -106 190 -168 295
-203 160 -52 295 -56 433 -13 235 72 414 245 489 473 23 70 27 96 27 215 1
152 -13 218 -69 336 -88 183 -218 292 -436 365 -92 31 -222 46 -289 33z"/>
</g>
</svg>
